<?xml version="1.0" encoding="UTF-8" standalone="no"?>
<!DOCTYPE svg PUBLIC "-//W3C//DTD SVG 1.1//EN"
 "http://www.w3.org/Graphics/SVG/1.1/DTD/svg11.dtd">
<!-- Generated by graphviz version 2.40.1 (20161225.0304)
 -->
<!-- Title: abc Pages: 1 -->
<svg width="332pt" height="125pt"
 viewBox="0.00 0.00 332.00 125.00" xmlns="http://www.w3.org/2000/svg" xmlns:xlink="http://www.w3.org/1999/xlink">
<g id="graph0" class="graph" transform="scale(1 1) rotate(0) translate(4 121)">
<title>abc</title>
<polygon fill="#ffffff" stroke="transparent" points="-4,4 -4,-121 328,-121 328,4 -4,4"/>
<!-- A -->
<g id="node1" class="node">
<title>A</title>
<polygon fill="none" stroke="#000000" points="0,-27 0,-63 54,-63 54,-27 0,-27"/>
<text text-anchor="middle" x="27" y="-40.8" font-family="Times,serif" font-size="14.00" fill="#000000">A</text>
</g>
<!-- B -->
<g id="node2" class="node">
<title>B</title>
<ellipse fill="none" stroke="#000000" cx="117" cy="-45" rx="27" ry="18"/>
<text text-anchor="middle" x="117" y="-40.8" font-family="Times,serif" font-size="14.00" fill="#000000">B</text>
</g>
<!-- A&#45;&gt;B -->
<g id="edge1" class="edge">
<title>A&#45;&gt;B</title>
<path fill="none" stroke="#ff0000" stroke-dasharray="5,2" d="M54.003,-45C65.2905,-45 78.3867,-45 89.705,-45"/>
</g>
<!-- C -->
<g id="node3" class="node">
<title>C</title>
<ellipse fill="none" stroke="#000000" cx="207" cy="-72" rx="27" ry="18"/>
<text text-anchor="middle" x="207" y="-67.8" font-family="Times,serif" font-size="14.00" fill="#000000">C</text>
</g>
<!-- B&#45;&gt;C -->
<g id="edge2" class="edge">
<title>B&#45;&gt;C</title>
<path fill="none" stroke="#000000" d="M142.07,-52.521C151.5102,-55.3531 162.4169,-58.6251 172.564,-61.6692"/>
<polygon fill="#000000" stroke="#000000" points="171.7915,-65.0915 182.3755,-64.6126 173.803,-58.3867 171.7915,-65.0915"/>
</g>
<!-- D -->
<g id="node4" class="node">
<title>D</title>
<ellipse fill="none" stroke="#000000" cx="207" cy="-18" rx="27" ry="18"/>
<text text-anchor="middle" x="207" y="-13.8" font-family="Times,serif" font-size="14.00" fill="#000000">D</text>
</g>
<!-- B&#45;&gt;D -->
<g id="edge3" class="edge">
<title>B&#45;&gt;D</title>
<path fill="none" stroke="#000000" d="M142.07,-37.479C151.5102,-34.6469 162.4169,-31.3749 172.564,-28.3308"/>
<polygon fill="#000000" stroke="#000000" points="173.803,-31.6133 182.3755,-25.3874 171.7915,-24.9085 173.803,-31.6133"/>
</g>
<!-- E -->
<g id="node5" class="node">
<title>E</title>
<ellipse fill="none" stroke="#000000" cx="297" cy="-99" rx="27" ry="18"/>
<text text-anchor="middle" x="297" y="-94.8" font-family="Times,serif" font-size="14.00" fill="#000000">E</text>
</g>
<!-- C&#45;&gt;E -->
<g id="edge4" class="edge">
<title>C&#45;&gt;E</title>
<path fill="none" stroke="#000000" d="M232.07,-79.521C241.5102,-82.3531 252.4169,-85.6251 262.564,-88.6692"/>
<polygon fill="#000000" stroke="#000000" points="261.7915,-92.0915 272.3755,-91.6126 263.803,-85.3867 261.7915,-92.0915"/>
</g>
<!-- F -->
<g id="node6" class="node">
<title>F</title>
<ellipse fill="none" stroke="#000000" cx="297" cy="-45" rx="27" ry="18"/>
<text text-anchor="middle" x="297" y="-40.8" font-family="Times,serif" font-size="14.00" fill="#000000">F</text>
</g>
<!-- C&#45;&gt;F -->
<g id="edge5" class="edge">
<title>C&#45;&gt;F</title>
<path fill="none" stroke="#000000" d="M232.07,-64.479C241.5102,-61.6469 252.4169,-58.3749 262.564,-55.3308"/>
<polygon fill="#000000" stroke="#000000" points="263.803,-58.6133 272.3755,-52.3874 261.7915,-51.9085 263.803,-58.6133"/>
</g>
</g>
</svg>
