<?xml version="1.0" encoding="UTF-8" standalone="no"?>
<!DOCTYPE svg PUBLIC "-//W3C//DTD SVG 1.1//EN"
 "http://www.w3.org/Graphics/SVG/1.1/DTD/svg11.dtd">
<!-- Generated by graphviz version 2.40.1 (20161225.0304)
 -->
<!-- Title: Database Structure Pages: 1 -->
<svg width="329pt" height="255pt"
 viewBox="0.00 0.00 329.00 254.70" xmlns="http://www.w3.org/2000/svg" xmlns:xlink="http://www.w3.org/1999/xlink">
<g id="graph0" class="graph" transform="scale(1 1) rotate(0) translate(4 250.7)">
<title>Database Structure</title>
<polygon fill="#ffffff" stroke="transparent" points="-4,4 -4,-250.7 325,-250.7 325,4 -4,4"/>
<text text-anchor="middle" x="160.5" y="-231.5" font-family="Helvetica,sans-Serif" font-size="14.00" fill="#000000">ER Diagram: test</text>
<!-- department -->
<g id="node1" class="node">
<title>department</title>
<polygon fill="#dddddd" stroke="transparent" points="225,-61.6203 225,-81.6203 313,-81.6203 313,-61.6203 225,-61.6203"/>
<polygon fill="none" stroke="#000000" points="225,-61.6203 225,-81.6203 313,-81.6203 313,-61.6203 225,-61.6203"/>
<text text-anchor="start" x="237.5137" y="-67.4203" font-family="Times,serif" font-size="14.00" fill="#000000">department</text>
<polygon fill="none" stroke="#000000" points="225,-41.6203 225,-61.6203 313,-61.6203 313,-41.6203 225,-41.6203"/>
<text text-anchor="start" x="253.5562" y="-48.4203" font-family="Times,serif" font-size="14.00" fill="#000000">id:</text>
<text text-anchor="start" x="268.3354" y="-48.4203" font-family="Helvetica,sans-Serif" font-style="oblique" font-size="10.00" fill="#000000">INT</text>
<polygon fill="none" stroke="#000000" points="225,-21.6203 225,-41.6203 313,-41.6203 313,-21.6203 225,-21.6203"/>
<text text-anchor="start" x="227.8169" y="-28.4203" font-family="Times,serif" font-size="14.00" fill="#000000">name:</text>
<text text-anchor="start" x="262.0239" y="-28.4203" font-family="Helvetica,sans-Serif" font-style="oblique" font-size="10.00" fill="#000000">VARCHAR</text>
</g>
<!-- user -->
<g id="node2" class="node">
<title>user</title>
<polygon fill="#dddddd" stroke="transparent" points="8,-167.6203 8,-187.6203 119,-187.6203 119,-167.6203 8,-167.6203"/>
<polygon fill="none" stroke="#000000" points="8,-167.6203 8,-187.6203 119,-187.6203 119,-167.6203 8,-167.6203"/>
<text text-anchor="start" x="51.8379" y="-173.4203" font-family="Times,serif" font-size="14.00" fill="#000000">user</text>
<polygon fill="none" stroke="#000000" points="8,-147.6203 8,-167.6203 119,-167.6203 119,-147.6203 8,-147.6203"/>
<text text-anchor="start" x="48.0562" y="-154.4203" font-family="Times,serif" font-size="14.00" fill="#000000">id:</text>
<text text-anchor="start" x="62.8354" y="-154.4203" font-family="Helvetica,sans-Serif" font-style="oblique" font-size="10.00" fill="#000000">INT</text>
<polygon fill="none" stroke="#000000" points="8,-127.6203 8,-147.6203 119,-147.6203 119,-127.6203 8,-127.6203"/>
<text text-anchor="start" x="10.6548" y="-134.4203" font-family="Times,serif" font-size="14.00" fill="#000000">username:</text>
<text text-anchor="start" x="68.186" y="-134.4203" font-family="Helvetica,sans-Serif" font-style="oblique" font-size="10.00" fill="#000000">VARCHAR</text>
<polygon fill="none" stroke="#000000" points="8,-107.6203 8,-127.6203 119,-127.6203 119,-107.6203 8,-107.6203"/>
<text text-anchor="start" x="11.0342" y="-114.4203" font-family="Times,serif" font-size="14.00" fill="#000000">password:</text>
<text text-anchor="start" x="67.8066" y="-114.4203" font-family="Helvetica,sans-Serif" font-style="oblique" font-size="10.00" fill="#000000">VARCHAR</text>
<polygon fill="none" stroke="#000000" points="8,-87.6203 8,-107.6203 119,-107.6203 119,-87.6203 8,-87.6203"/>
<text text-anchor="start" x="17.2324" y="-94.4203" font-family="Times,serif" font-size="14.00" fill="#000000">is_active:</text>
<text text-anchor="start" x="70.8809" y="-94.4203" font-family="Helvetica,sans-Serif" font-style="oblique" font-size="10.00" fill="#000000">TINYINT</text>
<polygon fill="none" stroke="#000000" points="8,-67.6203 8,-87.6203 119,-87.6203 119,-67.6203 8,-67.6203"/>
<text text-anchor="start" x="13.0698" y="-74.4203" font-family="Times,serif" font-size="14.00" fill="#000000">department_id:</text>
<text text-anchor="start" x="97.8218" y="-74.4203" font-family="Helvetica,sans-Serif" font-style="oblique" font-size="10.00" fill="#000000">INT</text>
</g>
<!-- user&#45;&gt;department -->
<g id="edge1" class="edge">
<title>user:department_id&#45;&gt;department:id</title>
<path fill="none" stroke="#444444" stroke-dasharray="5,2" d="M119,-77.6203C163.9074,-77.6203 174.941,-55.3364 214.8203,-52.0287"/>
<polygon fill="#444444" stroke="#444444" points="225.1403,-55.1175 215.008,-52.0212 224.8597,-48.1231 225.1403,-55.1175"/>
</g>
</g>
</svg>
