<?xml version="1.0" encoding="UTF-8" standalone="no"?>
<!DOCTYPE svg PUBLIC "-//W3C//DTD SVG 1.1//EN"
 "http://www.w3.org/Graphics/SVG/1.1/DTD/svg11.dtd">
<!-- Generated by graphviz version 2.40.1 (20161225.0304)
 -->
<!-- Title: data_flow_part Pages: 1 -->
<svg width="473pt" height="45pt"
 viewBox="0.00 0.00 472.66 45.00" xmlns="http://www.w3.org/2000/svg" xmlns:xlink="http://www.w3.org/1999/xlink">
<g id="graph0" class="graph" transform="scale(1 1) rotate(0) translate(4 41)">
<title>data_flow_part</title>
<polygon fill="#ffffff" stroke="transparent" points="-4,4 -4,-41 468.6602,-41 468.6602,4 -4,4"/>
<!-- 身份校验 -->
<g id="node1" class="node">
<title>身份校验</title>
<polygon fill="none" stroke="#000000" points="0,-.5 0,-36.5 56,-36.5 56,-.5 0,-.5"/>
<text text-anchor="middle" x="28" y="-17.5" font-family="Times,serif" font-size="10.00" fill="#000000">身份校验</text>
</g>
<!-- 关键信息获取
		(参与校验的信息) -->
<g id="node2" class="node">
<title>关键信息获取
		(参与校验的信息)</title>
<polygon fill="none" stroke="#000000" points="92,-.5 92,-36.5 240.6602,-36.5 240.6602,-.5 92,-.5"/>
<text text-anchor="middle" x="166.3301" y="-24.5" font-family="Times,serif" font-size="10.00" fill="#000000">关键信息获取</text>
<text text-anchor="middle" x="166.3301" y="-10.5001" font-family="Times,serif" font-size="10.00" fill="#000000">		(参与校验的信息)</text>
</g>
<!-- 身份校验&#45;&gt;关键信息获取
		(参与校验的信息) -->
<g id="edge1" class="edge">
<title>身份校验&#45;&gt;关键信息获取
		(参与校验的信息)</title>
<path fill="none" stroke="#000000" d="M56.327,-18.5C63.9077,-18.5 72.5082,-18.5 81.4804,-18.5"/>
<polygon fill="#000000" stroke="#000000" points="81.7338,-22.0001 91.7338,-18.5 81.7337,-15.0001 81.7338,-22.0001"/>
</g>
<!-- 输入参数校验 -->
<g id="node3" class="node">
<title>输入参数校验</title>
<polygon fill="none" stroke="#000000" points="276.6602,-.5 276.6602,-36.5 352.6602,-36.5 352.6602,-.5 276.6602,-.5"/>
<text text-anchor="middle" x="314.6602" y="-17.5" font-family="Times,serif" font-size="10.00" fill="#000000">输入参数校验</text>
</g>
<!-- 关键信息获取
		(参与校验的信息)&#45;&gt;输入参数校验 -->
<g id="edge2" class="edge">
<title>关键信息获取
		(参与校验的信息)&#45;&gt;输入参数校验</title>
<path fill="none" stroke="#000000" d="M240.9297,-18.5C249.553,-18.5 258.1685,-18.5 266.3098,-18.5"/>
<polygon fill="#000000" stroke="#000000" points="266.3334,-22.0001 276.3334,-18.5 266.3334,-15.0001 266.3334,-22.0001"/>
</g>
<!-- 输出结果校验 -->
<g id="node4" class="node">
<title>输出结果校验</title>
<polygon fill="none" stroke="#000000" points="388.6602,-.5 388.6602,-36.5 464.6602,-36.5 464.6602,-.5 388.6602,-.5"/>
<text text-anchor="middle" x="426.6602" y="-17.5" font-family="Times,serif" font-size="10.00" fill="#000000">输出结果校验</text>
</g>
<!-- 输入参数校验&#45;&gt;输出结果校验 -->
<g id="edge3" class="edge">
<title>输入参数校验&#45;&gt;输出结果校验</title>
<path fill="none" stroke="#000000" d="M352.8909,-18.5C361.0905,-18.5 369.857,-18.5 378.3802,-18.5"/>
<polygon fill="#000000" stroke="#000000" points="378.6017,-22.0001 388.6017,-18.5 378.6016,-15.0001 378.6017,-22.0001"/>
</g>
</g>
</svg>
