<?xml version="1.0" encoding="UTF-8" standalone="no"?>
<!DOCTYPE svg PUBLIC "-//W3C//DTD SVG 1.1//EN"
 "http://www.w3.org/Graphics/SVG/1.1/DTD/svg11.dtd">
<!-- Generated by graphviz version 2.40.1 (20161225.0304)
 -->
<!-- Title: data_check_module Pages: 1 -->
<svg width="436pt" height="140pt"
 viewBox="0.00 0.00 436.01 140.00" xmlns="http://www.w3.org/2000/svg" xmlns:xlink="http://www.w3.org/1999/xlink">
<g id="graph0" class="graph" transform="scale(1 1) rotate(0) translate(4 136)">
<title>data_check_module</title>
<polygon fill="#ffffff" stroke="transparent" points="-4,4 -4,-136 432.0146,-136 432.0146,4 -4,4"/>
<g id="clust1" class="cluster">
<title>cluster_cd</title>
<polygon fill="none" stroke="#000000" points="85.6772,-46 85.6772,-124 420.0146,-124 420.0146,-46 85.6772,-46"/>
<text text-anchor="middle" x="252.8459" y="-110.4" font-family="Times,serif" font-size="12.00" fill="#000000">数据访问控制</text>
</g>
<!-- key_info -->
<g id="node1" class="node">
<title>key_info</title>
<polygon fill="#eeeeee" stroke="#000000" points="93.6772,-55 93.6772,-91 186.3374,-91 186.3374,-55 93.6772,-55"/>
<text text-anchor="middle" x="140.0073" y="-79" font-family="Times,serif" font-size="10.00" fill="#000000">关键信息获取</text>
<text text-anchor="middle" x="140.0073" y="-65.0001" font-family="Times,serif" font-size="10.00" fill="#000000">(参与校验的信息)</text>
</g>
<!-- input_check -->
<g id="node2" class="node">
<title>input_check</title>
<polygon fill="#eeeeee" stroke="#000000" points="224.0146,-55 224.0146,-91 300.0146,-91 300.0146,-55 224.0146,-55"/>
<text text-anchor="middle" x="262.0146" y="-72" font-family="Times,serif" font-size="10.00" fill="#000000">输入参数校验</text>
</g>
<!-- key_info&#45;&gt;input_check -->
<g id="edge1" class="edge">
<title>key_info&#45;&gt;input_check</title>
<path fill="none" stroke="#000000" d="M186.4811,-73C195.4839,-73 204.935,-73 213.9865,-73"/>
<polygon fill="#000000" stroke="#000000" points="213.9909,-76.5001 223.9909,-73 213.9908,-69.5001 213.9909,-76.5001"/>
</g>
<!-- output_check -->
<g id="node3" class="node">
<title>output_check</title>
<polygon fill="#eeeeee" stroke="#000000" points="336.0146,-55 336.0146,-91 412.0146,-91 412.0146,-55 336.0146,-55"/>
<text text-anchor="middle" x="374.0146" y="-72" font-family="Times,serif" font-size="10.00" fill="#000000">输出结果校验</text>
</g>
<!-- input_check&#45;&gt;output_check -->
<g id="edge2" class="edge">
<title>input_check&#45;&gt;output_check</title>
<path fill="none" stroke="#000000" d="M300.2454,-73C308.4449,-73 317.2114,-73 325.7347,-73"/>
<polygon fill="#000000" stroke="#000000" points="325.9562,-76.5001 335.9561,-73 325.9561,-69.5001 325.9562,-76.5001"/>
</g>
<!-- 身份校验 -->
<g id="node4" class="node">
<title>身份校验</title>
<polygon fill="none" stroke="#000000" points="0,-55 0,-91 56,-91 56,-55 0,-55"/>
<text text-anchor="middle" x="28" y="-72" font-family="Times,serif" font-size="10.00" fill="#000000">身份校验</text>
</g>
<!-- 身份校验&#45;&gt;key_info -->
<g id="edge3" class="edge">
<title>身份校验&#45;&gt;key_info</title>
<path fill="none" stroke="#000000" d="M56.2642,-73C64.5453,-73 73.909,-73 83.2991,-73"/>
<polygon fill="#000000" stroke="#000000" points="83.4489,-76.5001 93.4488,-73 83.4488,-69.5001 83.4489,-76.5001"/>
</g>
<!-- configuration -->
<g id="node5" class="node">
<title>configuration</title>
<ellipse fill="none" stroke="#000000" stroke-dasharray="5,2" cx="140.0073" cy="-18" rx="48.0146" ry="18"/>
<text text-anchor="middle" x="140.0073" y="-17" font-family="Times,serif" font-size="10.00" fill="#000000">校验规则配置</text>
</g>
<!-- configuration&#45;&gt;input_check -->
<g id="edge4" class="edge">
<title>configuration&#45;&gt;input_check</title>
<path fill="none" stroke="#000000" stroke-dasharray="5,2" d="M170.7949,-31.8788C186.8901,-39.1344 206.7397,-48.0825 223.8082,-55.7768"/>
</g>
<!-- configuration&#45;&gt;output_check -->
<g id="edge5" class="edge">
<title>configuration&#45;&gt;output_check</title>
<path fill="none" stroke="#000000" stroke-dasharray="5,2" d="M185.6476,-23.7983C217.9137,-28.4271 262.0119,-35.8275 300.0146,-46 311.772,-49.1472 324.2984,-53.3695 335.6379,-57.5389"/>
</g>
</g>
</svg>
