<?xml version="1.0" encoding="UTF-8" standalone="no"?>
<!DOCTYPE svg PUBLIC "-//W3C//DTD SVG 1.1//EN"
 "http://www.w3.org/Graphics/SVG/1.1/DTD/svg11.dtd">
<!-- Generated by graphviz version 2.40.1 (20161225.0304)
 -->
<!-- Title: data_check_flow Pages: 1 -->
<svg width="246pt" height="620pt"
 viewBox="0.00 0.00 246.00 620.00" xmlns="http://www.w3.org/2000/svg" xmlns:xlink="http://www.w3.org/1999/xlink">
<g id="graph0" class="graph" transform="scale(1 1) rotate(0) translate(4 616)">
<title>data_check_flow</title>
<polygon fill="#ffffff" stroke="transparent" points="-4,4 -4,-616 242,-616 242,4 -4,4"/>
<!-- auth_check -->
<g id="node1" class="node">
<title>auth_check</title>
<polygon fill="none" stroke="#000000" points="184,-612 108,-612 108,-576 184,-576 184,-612"/>
<text text-anchor="middle" x="146" y="-593" font-family="Times,serif" font-size="10.00" fill="#000000">身份是否合法</text>
</g>
<!-- get_current_auth_level_info -->
<g id="node3" class="node">
<title>get_current_auth_level_info</title>
<polygon fill="none" stroke="#000000" points="204,-540 88,-540 88,-504 204,-504 204,-540"/>
<text text-anchor="middle" x="146" y="-521" font-family="Times,serif" font-size="10.00" fill="#000000">获取当前用户所在层级</text>
</g>
<!-- auth_check&#45;&gt;get_current_auth_level_info -->
<g id="edge1" class="edge">
<title>auth_check&#45;&gt;get_current_auth_level_info</title>
<path fill="none" stroke="#000000" d="M146,-575.8314C146,-568.131 146,-558.9743 146,-550.4166"/>
<polygon fill="#000000" stroke="#000000" points="149.5001,-550.4132 146,-540.4133 142.5001,-550.4133 149.5001,-550.4132"/>
</g>
<!-- api_param_check -->
<g id="node2" class="node">
<title>api_param_check</title>
<polygon fill="none" stroke="#000000" points="212.1133,-468 79.8867,-468 79.8867,-432 212.1133,-432 212.1133,-468"/>
<text text-anchor="middle" x="146" y="-449" font-family="Times,serif" font-size="10.00" fill="#000000">当前API参数是否包含层级</text>
</g>
<!-- api_param_check_yes -->
<g id="node8" class="node">
<title>api_param_check_yes</title>
<ellipse fill="none" stroke="#000000" cx="104" cy="-378" rx="27" ry="18"/>
<text text-anchor="middle" x="104" y="-375" font-family="Times,serif" font-size="10.00" fill="#000000">Yes</text>
</g>
<!-- api_param_check&#45;&gt;api_param_check_yes -->
<g id="edge3" class="edge">
<title>api_param_check&#45;&gt;api_param_check_yes</title>
<path fill="none" stroke="#000000" d="M135.4016,-431.8314C130.4442,-423.3329 124.4521,-413.0608 119.0369,-403.7776"/>
<polygon fill="#000000" stroke="#000000" points="121.9357,-401.8005 113.8737,-394.9263 115.8892,-405.3277 121.9357,-401.8005"/>
</g>
<!-- api_param_check_no -->
<g id="node9" class="node">
<title>api_param_check_no</title>
<ellipse fill="none" stroke="#000000" cx="203" cy="-306" rx="27" ry="18"/>
<text text-anchor="middle" x="203" y="-303" font-family="Times,serif" font-size="10.00" fill="#000000">No</text>
</g>
<!-- api_param_check&#45;&gt;api_param_check_no -->
<g id="edge4" class="edge">
<title>api_param_check&#45;&gt;api_param_check_no</title>
<path fill="none" stroke="#000000" d="M153.2191,-431.7623C163.0805,-406.8492 180.8395,-361.9843 192.2643,-333.1219"/>
<polygon fill="#000000" stroke="#000000" points="195.5916,-334.2255 196.0178,-323.6392 189.0829,-331.6491 195.5916,-334.2255"/>
</g>
<!-- get_current_auth_level_info&#45;&gt;api_param_check -->
<g id="edge2" class="edge">
<title>get_current_auth_level_info&#45;&gt;api_param_check</title>
<path fill="none" stroke="#000000" d="M146,-503.8314C146,-496.131 146,-486.9743 146,-478.4166"/>
<polygon fill="#000000" stroke="#000000" points="149.5001,-478.4132 146,-468.4133 142.5001,-478.4133 149.5001,-478.4132"/>
</g>
<!-- check_user_and_param_level -->
<g id="node4" class="node">
<title>check_user_and_param_level</title>
<polygon fill="none" stroke="#000000" points="158,-324 22,-324 22,-288 158,-288 158,-324"/>
<text text-anchor="middle" x="90" y="-305" font-family="Times,serif" font-size="10.00" fill="#000000">验证用户是否可访问该层级</text>
</g>
<!-- check_api_result_contains_level_info -->
<g id="node5" class="node">
<title>check_api_result_contains_level_info</title>
<polygon fill="none" stroke="#000000" points="207.1133,-252 84.8867,-252 84.8867,-216 207.1133,-216 207.1133,-252"/>
<text text-anchor="middle" x="146" y="-233" font-family="Times,serif" font-size="10.00" fill="#000000">API结果集是否包含层级</text>
</g>
<!-- check_user_and_param_level&#45;&gt;check_api_result_contains_level_info -->
<g id="edge7" class="edge">
<title>check_user_and_param_level&#45;&gt;check_api_result_contains_level_info</title>
<path fill="none" stroke="#000000" d="M104.1312,-287.8314C110.5811,-279.5386 118.3445,-269.557 125.4252,-260.4533"/>
<polygon fill="#000000" stroke="#000000" points="128.3019,-262.4556 131.6786,-252.4133 122.7764,-258.158 128.3019,-262.4556"/>
</g>
<!-- check_api_result_contains_level_info_yes -->
<g id="node10" class="node">
<title>check_api_result_contains_level_info_yes</title>
<ellipse fill="none" stroke="#000000" cx="119" cy="-162" rx="27" ry="18"/>
<text text-anchor="middle" x="119" y="-159" font-family="Times,serif" font-size="10.00" fill="#000000">Yes</text>
</g>
<!-- check_api_result_contains_level_info&#45;&gt;check_api_result_contains_level_info_yes -->
<g id="edge8" class="edge">
<title>check_api_result_contains_level_info&#45;&gt;check_api_result_contains_level_info_yes</title>
<path fill="none" stroke="#000000" d="M139.1868,-215.8314C136.1902,-207.8406 132.6057,-198.2819 129.2943,-189.4514"/>
<polygon fill="#000000" stroke="#000000" points="132.506,-188.0478 125.7175,-179.9134 125.9517,-190.5057 132.506,-188.0478"/>
</g>
<!-- check_api_result_contains_level_info_no -->
<g id="node11" class="node">
<title>check_api_result_contains_level_info_no</title>
<ellipse fill="none" stroke="#000000" cx="211" cy="-90" rx="27" ry="18"/>
<text text-anchor="middle" x="211" y="-87" font-family="Times,serif" font-size="10.00" fill="#000000">No</text>
</g>
<!-- check_api_result_contains_level_info&#45;&gt;check_api_result_contains_level_info_no -->
<g id="edge9" class="edge">
<title>check_api_result_contains_level_info&#45;&gt;check_api_result_contains_level_info_no</title>
<path fill="none" stroke="#000000" d="M154.2323,-215.7623C165.4778,-190.8492 185.7293,-145.9843 198.7575,-117.1219"/>
<polygon fill="#000000" stroke="#000000" points="202.1137,-118.1937 203.0379,-107.6392 195.7336,-115.3137 202.1137,-118.1937"/>
</g>
<!-- check_api_result -->
<g id="node6" class="node">
<title>check_api_result</title>
<polygon fill="none" stroke="#000000" points="166,-108 0,-108 0,-72 166,-72 166,-108"/>
<text text-anchor="middle" x="83" y="-89" font-family="Times,serif" font-size="10.00" fill="#000000">验证用户是否可访问结果集之层级</text>
</g>
<!-- end -->
<g id="node7" class="node">
<title>end</title>
<polygon fill="none" stroke="#000000" points="174,-36 120,-36 120,0 174,0 174,-36"/>
<text text-anchor="middle" x="147" y="-17" font-family="Times,serif" font-size="10.00" fill="#000000">结束</text>
</g>
<!-- check_api_result&#45;&gt;end -->
<g id="edge12" class="edge">
<title>check_api_result&#45;&gt;end</title>
<path fill="none" stroke="#000000" d="M99.1499,-71.8314C106.6717,-63.3694 115.7565,-53.1489 123.9804,-43.8971"/>
<polygon fill="#000000" stroke="#000000" points="126.6049,-46.2127 130.6327,-36.4133 121.373,-41.5621 126.6049,-46.2127"/>
</g>
<!-- api_param_check_yes&#45;&gt;check_user_and_param_level -->
<g id="edge5" class="edge">
<title>api_param_check_yes&#45;&gt;check_user_and_param_level</title>
<path fill="none" stroke="#000000" d="M100.4672,-359.8314C98.9699,-352.131 97.1895,-342.9743 95.5255,-334.4166"/>
<polygon fill="#000000" stroke="#000000" points="98.9248,-333.5614 93.5804,-324.4133 92.0535,-334.8975 98.9248,-333.5614"/>
</g>
<!-- api_param_check_no&#45;&gt;check_api_result_contains_level_info -->
<g id="edge6" class="edge">
<title>api_param_check_no&#45;&gt;check_api_result_contains_level_info</title>
<path fill="none" stroke="#000000" d="M190.3499,-290.0209C183.4315,-281.2819 174.686,-270.235 166.7932,-260.2651"/>
<polygon fill="#000000" stroke="#000000" points="169.3739,-257.8861 160.4226,-252.2181 163.8855,-262.231 169.3739,-257.8861"/>
</g>
<!-- check_api_result_contains_level_info_yes&#45;&gt;check_api_result -->
<g id="edge11" class="edge">
<title>check_api_result_contains_level_info_yes&#45;&gt;check_api_result</title>
<path fill="none" stroke="#000000" d="M110.2854,-144.5708C106.1772,-136.3544 101.1804,-126.3608 96.5911,-117.1821"/>
<polygon fill="#000000" stroke="#000000" points="99.613,-115.3996 92.0103,-108.0206 93.352,-118.5301 99.613,-115.3996"/>
</g>
<!-- check_api_result_contains_level_info_no&#45;&gt;end -->
<g id="edge10" class="edge">
<title>check_api_result_contains_level_info_no&#45;&gt;end</title>
<path fill="none" stroke="#000000" d="M197.113,-74.3771C189.1445,-65.4125 178.9417,-53.9344 169.8244,-43.6774"/>
<polygon fill="#000000" stroke="#000000" points="172.3785,-41.2826 163.1189,-36.1338 167.1466,-45.9332 172.3785,-41.2826"/>
</g>
</g>
</svg>
