<?xml version="1.0" encoding="UTF-8" standalone="no"?>
<!DOCTYPE svg PUBLIC "-//W3C//DTD SVG 1.1//EN"
 "http://www.w3.org/Graphics/SVG/1.1/DTD/svg11.dtd">
<!-- Generated by graphviz version 2.40.1 (20161225.0304)
 -->
<!-- Title: roles Pages: 1 -->
<svg width="422pt" height="188pt"
 viewBox="0.00 0.00 422.00 188.00" xmlns="http://www.w3.org/2000/svg" xmlns:xlink="http://www.w3.org/1999/xlink">
<g id="graph0" class="graph" transform="scale(1 1) rotate(0) translate(4 184)">
<title>roles</title>
<polygon fill="#ffffff" stroke="transparent" points="-4,4 -4,-184 418,-184 418,4 -4,4"/>
<!-- 1&#45;a -->
<g id="node1" class="node">
<title>1&#45;a</title>
<ellipse fill="none" stroke="#000000" cx="243" cy="-162" rx="27" ry="18"/>
<text text-anchor="middle" x="243" y="-157.8" font-family="Times,serif" font-size="14.00" fill="#000000">1&#45;a</text>
</g>
<!-- 2&#45;a -->
<g id="node2" class="node">
<title>2&#45;a</title>
<ellipse fill="none" stroke="#000000" cx="171" cy="-90" rx="27" ry="18"/>
<text text-anchor="middle" x="171" y="-85.8" font-family="Times,serif" font-size="14.00" fill="#000000">2&#45;a</text>
</g>
<!-- 1&#45;a&#45;&gt;2&#45;a -->
<g id="edge1" class="edge">
<title>1&#45;a&#45;&gt;2&#45;a</title>
<path fill="none" stroke="#000000" d="M227.7307,-146.7307C215.512,-134.512 198.4602,-117.4602 186.2473,-105.2473"/>
</g>
<!-- 2&#45;b -->
<g id="node3" class="node">
<title>2&#45;b</title>
<ellipse fill="none" stroke="#000000" cx="315" cy="-90" rx="27" ry="18"/>
<text text-anchor="middle" x="315" y="-85.8" font-family="Times,serif" font-size="14.00" fill="#000000">2&#45;b</text>
</g>
<!-- 1&#45;a&#45;&gt;2&#45;b -->
<g id="edge2" class="edge">
<title>1&#45;a&#45;&gt;2&#45;b</title>
<path fill="none" stroke="#000000" d="M258.2693,-146.7307C270.488,-134.512 287.5398,-117.4602 299.7527,-105.2473"/>
</g>
<!-- 3&#45;a -->
<g id="node4" class="node">
<title>3&#45;a</title>
<ellipse fill="none" stroke="#000000" cx="27" cy="-18" rx="27" ry="18"/>
<text text-anchor="middle" x="27" y="-13.8" font-family="Times,serif" font-size="14.00" fill="#000000">3&#45;a</text>
</g>
<!-- 2&#45;a&#45;&gt;3&#45;a -->
<g id="edge3" class="edge">
<title>2&#45;a&#45;&gt;3&#45;a</title>
<path fill="none" stroke="#000000" d="M149.1295,-79.0647C121.9066,-65.4533 75.703,-42.3515 48.6045,-28.8022"/>
</g>
<!-- 3&#45;b -->
<g id="node5" class="node">
<title>3&#45;b</title>
<ellipse fill="none" stroke="#000000" cx="99" cy="-18" rx="27" ry="18"/>
<text text-anchor="middle" x="99" y="-13.8" font-family="Times,serif" font-size="14.00" fill="#000000">3&#45;b</text>
</g>
<!-- 2&#45;a&#45;&gt;3&#45;b -->
<g id="edge4" class="edge">
<title>2&#45;a&#45;&gt;3&#45;b</title>
<path fill="none" stroke="#000000" d="M155.7307,-74.7307C143.512,-62.512 126.4602,-45.4602 114.2473,-33.2473"/>
</g>
<!-- 3&#45;c -->
<g id="node6" class="node">
<title>3&#45;c</title>
<ellipse fill="none" stroke="#000000" cx="171" cy="-18" rx="27" ry="18"/>
<text text-anchor="middle" x="171" y="-13.8" font-family="Times,serif" font-size="14.00" fill="#000000">3&#45;c</text>
</g>
<!-- 2&#45;a&#45;&gt;3&#45;c -->
<g id="edge5" class="edge">
<title>2&#45;a&#45;&gt;3&#45;c</title>
<path fill="none" stroke="#000000" d="M171,-71.8314C171,-61 171,-47.2876 171,-36.4133"/>
</g>
<!-- 3&#45;d -->
<g id="node7" class="node">
<title>3&#45;d</title>
<ellipse fill="none" stroke="#000000" cx="243" cy="-18" rx="27" ry="18"/>
<text text-anchor="middle" x="243" y="-13.8" font-family="Times,serif" font-size="14.00" fill="#000000">3&#45;d</text>
</g>
<!-- 2&#45;a&#45;&gt;3&#45;d -->
<g id="edge6" class="edge">
<title>2&#45;a&#45;&gt;3&#45;d</title>
<path fill="none" stroke="#000000" d="M186.2693,-74.7307C198.488,-62.512 215.5398,-45.4602 227.7527,-33.2473"/>
</g>
<!-- 3&#45;e -->
<g id="node8" class="node">
<title>3&#45;e</title>
<ellipse fill="none" stroke="#000000" cx="315" cy="-18" rx="27" ry="18"/>
<text text-anchor="middle" x="315" y="-13.8" font-family="Times,serif" font-size="14.00" fill="#000000">3&#45;e</text>
</g>
<!-- 2&#45;b&#45;&gt;3&#45;e -->
<g id="edge7" class="edge">
<title>2&#45;b&#45;&gt;3&#45;e</title>
<path fill="none" stroke="#000000" d="M315,-71.8314C315,-61 315,-47.2876 315,-36.4133"/>
</g>
<!-- 3&#45;f -->
<g id="node9" class="node">
<title>3&#45;f</title>
<ellipse fill="none" stroke="#000000" cx="387" cy="-18" rx="27" ry="18"/>
<text text-anchor="middle" x="387" y="-13.8" font-family="Times,serif" font-size="14.00" fill="#000000">3&#45;f</text>
</g>
<!-- 2&#45;b&#45;&gt;3&#45;f -->
<g id="edge8" class="edge">
<title>2&#45;b&#45;&gt;3&#45;f</title>
<path fill="none" stroke="#000000" d="M330.2693,-74.7307C342.488,-62.512 359.5398,-45.4602 371.7527,-33.2473"/>
</g>
</g>
</svg>
